<?xml version="1.0" standalone="no"?><!DOCTYPE svg PUBLIC "-//W3C//DTD SVG 1.1//EN" "http://www.w3.org/Graphics/SVG/1.1/DTD/svg11.dtd"><svg t="1565322645383" class="icon" viewBox="0 0 1024 1024" version="1.1" xmlns="http://www.w3.org/2000/svg" p-id="1434" xmlns:xlink="http://www.w3.org/1999/xlink" width="200" height="200"><defs><style type="text/css"></style></defs><path d="M680.96 420.571429a215.771429 215.771429 0 0 0-388.388571 0z m20.48 106.788571H199.68a98.742857 98.742857 0 1 0 0 197.485714h325.485714a219.428571 219.428571 0 0 0 176.274286-197.485714z m-176.274286 304.274286H206.262857a205.531429 205.531429 0 0 1 0-411.062857h81.92l-80.457143-65.828572a320.365714 320.365714 0 0 1 585.142857 65.828572h24.868572a205.531429 205.531429 0 1 1 0 411.062857H731.428571V724.845714h91.428572a98.742857 98.742857 0 0 0 0-197.485714H804.571429a320.365714 320.365714 0 0 1-281.6 303.542857z" p-id="1435"></path></svg>